<svg width="40" height="40" fill="none" xmlns="http://www.w3.org/2000/svg"><g clip-path="url(#a)"><path d="M34.14 0H5.86A5.866 5.866 0 0 0 0 5.86v28.28A5.866 5.866 0 0 0 5.86 40h28.28A5.867 5.867 0 0 0 40 34.14V5.86A5.866 5.866 0 0 0 34.14 0Zm-20 31.719H9.454V15.312h4.688V31.72Zm0-18.75H9.454V8.28h4.688v4.688Zm16.407 18.75h-4.688v-9.375A2.347 2.347 0 0 0 23.516 20a2.347 2.347 0 0 0-2.344 2.344v9.375h-4.688V15.312h4.688v.884c1.228-.382 2.026-.884 3.515-.884 3.18.004 5.86 2.856 5.86 6.226v10.18Z" fill="#0172B4"/></g><defs><clipPath id="a"><path fill="#fff" d="M0 0h40v40H0z"/></clipPath></defs></svg>