<svg width="90" height="14" fill="none" xmlns="http://www.w3.org/2000/svg"><path d="M12.817 5.597a.347.347 0 0 0-.276-.244l-3.617-.55-1.617-3.437a.34.34 0 0 0-.307-.2.34.34 0 0 0-.306.2L5.076 4.802l-3.617.551a.347.347 0 0 0-.276.244.37.37 0 0 0 .087.367l2.617 2.674-.618 3.777a.367.367 0 0 0 .136.35.331.331 0 0 0 .36.027L7 11.01l3.235 1.783a.329.329 0 0 0 .36-.027.367.367 0 0 0 .136-.35l-.618-3.777 2.617-2.674a.37.37 0 0 0 .087-.367Zm19 0a.347.347 0 0 0-.276-.244l-3.617-.55-1.617-3.437a.34.34 0 0 0-.307-.2.34.34 0 0 0-.306.2l-1.618 3.436-3.617.551a.347.347 0 0 0-.276.244.37.37 0 0 0 .087.367l2.617 2.674-.618 3.777a.367.367 0 0 0 .136.35.332.332 0 0 0 .36.027L26 11.01l3.235 1.783a.329.329 0 0 0 .36-.027.367.367 0 0 0 .136-.35l-.618-3.777 2.617-2.674a.37.37 0 0 0 .087-.367Zm19 0a.347.347 0 0 0-.276-.244l-3.617-.55-1.617-3.437a.34.34 0 0 0-.307-.2.34.34 0 0 0-.306.2l-1.618 3.436-3.617.551a.347.347 0 0 0-.276.244.37.37 0 0 0 .087.367l2.617 2.674-.618 3.777a.367.367 0 0 0 .136.35.332.332 0 0 0 .36.027L45 11.01l3.235 1.783a.329.329 0 0 0 .36-.027.367.367 0 0 0 .136-.35l-.618-3.777 2.617-2.674a.37.37 0 0 0 .087-.367Zm19 0a.347.347 0 0 0-.276-.244l-3.617-.55-1.617-3.437a.34.34 0 0 0-.307-.2.34.34 0 0 0-.306.2l-1.618 3.436-3.617.551a.347.347 0 0 0-.276.244.37.37 0 0 0 .087.367l2.617 2.674-.618 3.777a.367.367 0 0 0 .136.35.332.332 0 0 0 .36.027L64 11.01l3.235 1.783a.329.329 0 0 0 .36-.027.367.367 0 0 0 .136-.35l-.618-3.777 2.617-2.674a.37.37 0 0 0 .087-.367Zm19 0a.347.347 0 0 0-.276-.244l-3.617-.55-1.617-3.437a.34.34 0 0 0-.307-.2.34.34 0 0 0-.306.2l-1.618 3.436-3.617.551a.347.347 0 0 0-.276.244.37.37 0 0 0 .087.367l2.617 2.674-.618 3.777a.367.367 0 0 0 .136.35.332.332 0 0 0 .36.027L83 11.01l3.235 1.783a.329.329 0 0 0 .36-.027.367.367 0 0 0 .136-.35l-.618-3.777 2.617-2.674a.37.37 0 0 0 .087-.367Z" fill="#FFA800"/></svg>